<?xml version="1.0" standalone="no"?>
<!DOCTYPE svg PUBLIC "-//W3C//DTD SVG 20010904//EN"
 "http://www.w3.org/TR/2001/REC-SVG-20010904/DTD/svg10.dtd">
<svg version="1.0" xmlns="http://www.w3.org/2000/svg"
 width="1502.000000pt" height="1502.000000pt" viewBox="0 0 1502.000000 1502.000000"
 preserveAspectRatio="xMidYMid meet">
<metadata>
Created by potrace 1.14, written by Peter Selinger 2001-2017
</metadata>
<g transform="translate(0.000000,1502.000000) scale(0.100000,-0.100000)"
fill="#000000" stroke="none">
<path d="M7347 15014 c-1 -1 -90 -5 -197 -8 -107 -4 -212 -9 -235 -11 -22 -2
-76 -7 -120 -10 -44 -4 -93 -8 -110 -9 -16 -2 -64 -7 -105 -11 -41 -4 -82 -8
-90 -10 -22 -4 -121 -17 -150 -20 -14 -2 -52 -7 -85 -13 -33 -6 -78 -14 -100
-17 -23 -3 -52 -8 -65 -10 -14 -3 -36 -7 -50 -10 -420 -77 -930 -227 -1225
-359 -157 -71 -253 -116 -325 -154 -353 -186 -665 -413 -901 -658 -111 -115
-136 -145 -223 -259 -203 -268 -328 -515 -430 -851 -14 -43 -48 -146 -76 -229
-56 -163 -108 -325 -114 -359 -2 -12 -11 -48 -20 -81 -65 -254 -62 -492 9
-637 38 -77 100 -146 154 -170 317 -141 650 -261 876 -314 20 -5 148 -29 215
-41 76 -13 344 -6 425 12 222 47 416 144 541 269 130 130 226 292 407 686 177
384 290 564 453 722 210 204 436 297 879 363 22 4 52 8 68 11 15 2 51 7 80 9
28 3 72 7 97 10 304 31 708 36 1020 11 66 -6 181 -17 210 -21 14 -2 45 -7 70
-10 298 -40 629 -135 855 -245 302 -147 519 -352 630 -593 34 -76 101 -280
140 -427 4 -17 26 -121 26 -125 0 -2 5 -19 10 -37 5 -18 12 -51 14 -73 3 -22
7 -51 10 -65 43 -229 39 -552 -10 -763 -42 -183 -112 -351 -206 -498 -30 -46
-61 -93 -69 -103 -250 -315 -593 -564 -1081 -784 -95 -43 -234 -104 -244 -106
-5 -2 -23 -9 -40 -15 -131 -55 -751 -273 -810 -285 -5 -1 -64 -19 -130 -40
-153 -48 -342 -106 -470 -145 -756 -229 -1259 -399 -1573 -532 -51 -21 -95
-39 -98 -39 -3 0 -35 -13 -71 -30 -35 -16 -66 -30 -68 -30 -3 0 -53 -23 -112
-51 -585 -276 -960 -525 -1299 -863 -242 -241 -393 -443 -541 -724 -41 -78
-140 -299 -149 -332 -2 -8 -17 -54 -33 -102 -28 -79 -75 -248 -87 -308 -3 -14
-9 -43 -14 -65 -12 -56 -38 -218 -45 -290 -4 -33 -8 -71 -10 -85 -6 -38 -16
-220 -20 -360 -4 -129 -15 -383 -20 -480 -21 -373 -22 -1119 -1 -1380 12 -154
17 -207 21 -231 3 -15 7 -47 10 -70 7 -60 23 -155 35 -209 6 -25 12 -54 15
-65 27 -133 100 -331 166 -455 113 -208 269 -386 494 -561 72 -56 280 -197
330 -225 11 -6 58 -35 105 -64 47 -29 94 -56 105 -61 11 -5 34 -18 51 -28 45
-28 314 -176 429 -237 55 -29 125 -66 155 -83 199 -111 623 -314 755 -361 33
-12 69 -25 80 -30 57 -24 305 -92 385 -105 19 -3 51 -10 70 -15 19 -4 60 -11
90 -15 30 -4 64 -9 75 -11 23 -4 88 -10 200 -20 101 -8 2749 -8 2830 0 33 3
85 9 115 12 376 39 772 178 1144 401 49 29 93 53 98 53 4 0 8 5 8 10 0 6 5 10
11 10 10 0 290 187 335 223 11 9 71 57 134 109 124 100 371 340 466 453 32 39
61 72 65 75 3 3 30 39 61 80 260 351 436 708 570 1154 26 89 64 237 74 291 2
11 8 38 14 60 10 41 44 236 55 315 3 25 8 56 10 70 5 28 11 79 20 155 2 28 7
68 9 90 5 39 15 162 21 255 24 360 24 933 0 1470 -2 47 -6 144 -9 215 -3 72
-8 155 -11 185 -2 30 -7 107 -10 170 -4 63 -8 147 -11 185 -2 39 -6 106 -9
150 -12 215 -26 402 -41 550 -24 238 -19 870 11 1480 3 72 8 173 10 225 8 171
16 334 20 415 29 600 39 946 39 1455 0 402 -5 628 -19 835 -15 235 -21 300
-30 380 -3 22 -7 61 -10 86 -3 40 -10 95 -31 259 -9 72 -50 302 -65 370 -6 25
-13 56 -15 70 -3 14 -7 33 -10 42 -3 9 -7 26 -9 37 -10 54 -70 265 -101 360
-93 279 -255 608 -367 747 -206 256 -370 407 -643 590 -65 44 -146 96 -179
115 -33 18 -78 44 -100 57 -120 68 -377 187 -564 262 -198 78 -661 223 -817
254 -10 3 -71 16 -134 30 -63 14 -126 28 -140 30 -14 3 -38 8 -55 11 -145 28
-279 51 -358 60 -23 3 -53 7 -66 10 -13 2 -49 7 -80 10 -31 4 -66 8 -79 10
-13 2 -51 7 -85 10 -34 3 -80 8 -102 10 -22 2 -80 7 -130 10 -49 4 -108 8
-130 11 -81 8 -642 23 -648 18z m2529 -8362 c0 -290 4 -655 8 -812 15 -518 11
-1173 -9 -1460 -16 -233 -22 -294 -35 -395 -5 -38 -12 -92 -16 -120 -3 -27
-23 -138 -44 -245 -98 -496 -260 -831 -504 -1048 -187 -165 -751 -374 -1151
-427 -11 -2 -54 -8 -95 -14 -179 -25 -310 -34 -505 -34 -417 0 -757 54 -1140
179 -66 21 -88 30 -190 72 -112 47 -309 152 -413 222 -463 309 -728 726 -779
1225 -13 125 -6 372 12 460 3 11 7 36 10 55 5 38 8 50 25 125 6 28 13 58 15
68 24 116 153 452 229 597 99 188 121 227 132 241 8 8 14 19 14 23 0 19 116
179 177 243 194 204 517 391 931 539 54 19 106 39 117 43 84 39 661 211 1305
391 36 10 90 25 120 34 30 9 87 24 125 35 90 25 389 114 625 186 211 64 754
245 910 304 58 22 110 40 115 40 7 1 10 -182 11 -527z"/>
</g>
</svg>
